<svg width="226" height="60" viewBox="0 0 226 60" fill="none" xmlns="http://www.w3.org/2000/svg">
<rect y="4.18604" width="6.0258" height="55.814" rx="3.0129" fill="#FFB61D"/>
<rect x="24.1031" y="4.18604" width="6.0258" height="55.814" rx="3.0129" fill="#FFB61D"/>
<rect x="48.2064" y="4.18604" width="6.0258" height="55.814" rx="3.0129" fill="#FFB61D"/>
<rect x="12.0516" width="6.0258" height="55.814" rx="3.0129" fill="#1E2772"/>
<rect x="36.1548" width="6.0258" height="55.814" rx="3.0129" fill="#1E2772"/>
<path d="M84.4746 21.8931H87.3866V44.0691H84.4746L72.7626 26.4691V44.0691H69.8506V21.8931H72.7626L84.4746 39.4931V21.8931ZM99.5543 44.3571C97.037 44.3571 94.989 43.5251 93.4103 41.8611C91.8316 40.1971 91.0423 37.9998 91.0423 35.2691C91.0423 32.5384 91.8423 30.3518 93.4423 28.7091C95.0423 27.0451 97.1116 26.2131 99.6503 26.2131C102.21 26.2131 104.258 27.0024 105.794 28.5811C107.352 30.1384 108.13 32.1331 108.13 34.5651C108.13 35.1838 108.088 35.7598 108.002 36.2931H94.0183C94.1036 38.0424 94.6476 39.4291 95.6503 40.4531C96.6743 41.4558 97.9756 41.9571 99.5543 41.9571C100.749 41.9571 101.752 41.6904 102.562 41.1571C103.394 40.6238 104.002 39.9198 104.386 39.0451H107.522C106.968 40.5811 106.008 41.8504 104.642 42.8531C103.298 43.8558 101.602 44.3571 99.5543 44.3571ZM105.09 34.1811C105.069 32.4958 104.536 31.1518 103.49 30.1491C102.445 29.1251 101.144 28.6131 99.5863 28.6131C98.0503 28.6131 96.7703 29.1144 95.7463 30.1171C94.7223 31.0984 94.157 32.4531 94.0503 34.1811H105.09ZM124.269 26.5011L118.605 35.2691L124.237 44.0691H120.941L116.781 37.5411L112.909 44.0691H109.741L115.405 35.3651L109.741 26.5011H113.037L117.229 33.0611L121.133 26.5011H124.269ZM139.422 26.5011H142.334V44.0691H139.422V41.2531C138.249 43.3224 136.339 44.3571 133.694 44.3571C131.753 44.3571 130.131 43.7171 128.83 42.4371C127.529 41.1358 126.878 39.3011 126.878 36.9331V26.5011H129.758V36.4531C129.758 38.2024 130.185 39.5464 131.038 40.4851C131.913 41.4024 133.097 41.8611 134.59 41.8611C136.083 41.8611 137.257 41.4024 138.11 40.4851C138.985 39.5464 139.422 38.2024 139.422 36.4531V26.5011ZM147.132 44.0691V21.8931H159.612V24.2291H150.044V31.7491H157.596V34.0531H150.044V44.0691H147.132ZM174.755 40.0691C175.929 38.8744 176.515 37.2851 176.515 35.3011C176.515 33.3171 175.929 31.7278 174.755 30.5331C173.603 29.3384 172.206 28.7411 170.563 28.7411C168.942 28.7411 167.545 29.3171 166.371 30.4691C165.219 31.6211 164.643 33.1891 164.643 35.1731C164.643 37.1571 165.23 38.7678 166.403 40.0051C167.577 41.2424 168.974 41.8611 170.595 41.8611C172.217 41.8611 173.603 41.2638 174.755 40.0691ZM170.051 44.3571C167.662 44.3571 165.667 43.5038 164.067 41.7971C162.467 40.0691 161.667 37.8718 161.667 35.2051C161.667 32.5171 162.457 30.3518 164.035 28.7091C165.635 27.0451 167.641 26.2131 170.051 26.2131C171.545 26.2131 172.846 26.5651 173.955 27.2691C175.086 27.9731 175.939 28.8904 176.515 30.0211V26.5011H179.459V44.0691H176.515V40.4851C175.939 41.6371 175.086 42.5758 173.955 43.3011C172.846 44.0051 171.545 44.3571 170.051 44.3571ZM193.089 41.8611C194.731 41.8611 196.129 41.2531 197.281 40.0371C198.454 38.7998 199.041 37.1891 199.041 35.2051C199.041 33.1998 198.454 31.6211 197.281 30.4691C196.129 29.3171 194.731 28.7411 193.089 28.7411C191.467 28.7411 190.07 29.3384 188.897 30.5331C187.745 31.7278 187.169 33.3171 187.169 35.3011C187.169 37.2638 187.745 38.8531 188.897 40.0691C190.07 41.2638 191.467 41.8611 193.089 41.8611ZM193.665 26.2131C196.075 26.2131 198.07 27.0451 199.649 28.7091C201.249 30.3518 202.049 32.5171 202.049 35.2051C202.049 37.8718 201.249 40.0691 199.649 41.7971C198.049 43.5038 196.054 44.3571 193.665 44.3571C192.171 44.3571 190.859 44.0051 189.729 43.3011C188.619 42.5758 187.766 41.6371 187.169 40.4851V44.0691H184.257V20.3891H187.169V30.0211C187.766 28.8904 188.619 27.9731 189.729 27.2691C190.859 26.5651 192.171 26.2131 193.665 26.2131Z" fill="black"/>
</svg>
