<svg width="134" height="25" viewBox="0 0 134 25" fill="none" xmlns="http://www.w3.org/2000/svg">
<path d="M15.4746 1.89309H18.3866V24.0691H15.4746L3.76256 6.46909V24.0691H0.850562V1.89309H3.76256L15.4746 19.4931V1.89309ZM30.5543 24.3571C28.037 24.3571 25.989 23.5251 24.4103 21.8611C22.8316 20.1971 22.0423 17.9998 22.0423 15.2691C22.0423 12.5384 22.8423 10.3518 24.4423 8.70909C26.0423 7.04509 28.1116 6.21309 30.6503 6.21309C33.2103 6.21309 35.2583 7.00242 36.7943 8.58109C38.3516 10.1384 39.1303 12.1331 39.1303 14.5651C39.1303 15.1838 39.0876 15.7598 39.0023 16.2931H25.0183C25.1036 18.0424 25.6476 19.4291 26.6503 20.4531C27.6743 21.4558 28.9756 21.9571 30.5543 21.9571C31.749 21.9571 32.7516 21.6904 33.5623 21.1571C34.3943 20.6238 35.0023 19.9198 35.3863 19.0451H38.5223C37.9676 20.5811 37.0076 21.8504 35.6423 22.8531C34.2983 23.8558 32.6023 24.3571 30.5543 24.3571ZM36.0903 14.1811C36.069 12.4958 35.5356 11.1518 34.4903 10.1491C33.445 9.12509 32.1436 8.61309 30.5863 8.61309C29.0503 8.61309 27.7703 9.11442 26.7463 10.1171C25.7223 11.0984 25.157 12.4531 25.0503 14.1811H36.0903ZM55.2688 6.50109L49.6048 15.2691L55.2368 24.0691H51.9408L47.7808 17.5411L43.9088 24.0691H40.7408L46.4048 15.3651L40.7408 6.50109H44.0368L48.2288 13.0611L52.1328 6.50109H55.2688ZM70.4221 6.50109H73.3341V24.0691H70.4221V21.2531C69.2487 23.3224 67.3394 24.3571 64.6941 24.3571C62.7527 24.3571 61.1314 23.7171 59.8301 22.4371C58.5287 21.1358 57.8781 19.3011 57.8781 16.9331V6.50109H60.7581V16.4531C60.7581 18.2024 61.1847 19.5464 62.0381 20.4851C62.9127 21.4024 64.0967 21.8611 65.5901 21.8611C67.0834 21.8611 68.2567 21.4024 69.1101 20.4851C69.9847 19.5464 70.4221 18.2024 70.4221 16.4531V6.50109ZM78.1318 24.0691V1.89309H90.6118V4.22909H81.0438V11.7491H88.5958V14.0531H81.0438V24.0691H78.1318ZM105.755 20.0691C106.929 18.8744 107.515 17.2851 107.515 15.3011C107.515 13.3171 106.929 11.7278 105.755 10.5331C104.603 9.33842 103.206 8.74109 101.563 8.74109C99.942 8.74109 98.5446 9.31709 97.3713 10.4691C96.2193 11.6211 95.6433 13.1891 95.6433 15.1731C95.6433 17.1571 96.23 18.7678 97.4033 20.0051C98.5766 21.2424 99.974 21.8611 101.595 21.8611C103.217 21.8611 104.603 21.2638 105.755 20.0691ZM101.051 24.3571C98.662 24.3571 96.6673 23.5038 95.0673 21.7971C93.4673 20.0691 92.6673 17.8718 92.6673 15.2051C92.6673 12.5171 93.4566 10.3518 95.0353 8.70909C96.6353 7.04509 98.6406 6.21309 101.051 6.21309C102.545 6.21309 103.846 6.56509 104.955 7.26909C106.086 7.97309 106.939 8.89042 107.515 10.0211V6.50109H110.459V24.0691H107.515V20.4851C106.939 21.6371 106.086 22.5758 104.955 23.3011C103.846 24.0051 102.545 24.3571 101.051 24.3571ZM124.089 21.8611C125.731 21.8611 127.129 21.2531 128.281 20.0371C129.454 18.7998 130.041 17.1891 130.041 15.2051C130.041 13.1998 129.454 11.6211 128.281 10.4691C127.129 9.31709 125.731 8.74109 124.089 8.74109C122.467 8.74109 121.07 9.33842 119.897 10.5331C118.745 11.7278 118.169 13.3171 118.169 15.3011C118.169 17.2638 118.745 18.8531 119.897 20.0691C121.07 21.2638 122.467 21.8611 124.089 21.8611ZM124.665 6.21309C127.075 6.21309 129.07 7.04509 130.649 8.70909C132.249 10.3518 133.049 12.5171 133.049 15.2051C133.049 17.8718 132.249 20.0691 130.649 21.7971C129.049 23.5038 127.054 24.3571 124.665 24.3571C123.171 24.3571 121.859 24.0051 120.729 23.3011C119.619 22.5758 118.766 21.6371 118.169 20.4851V24.0691H115.257V0.389091H118.169V10.0211C118.766 8.89042 119.619 7.97309 120.729 7.26909C121.859 6.56509 123.171 6.21309 124.665 6.21309Z" fill="black"/>
</svg>
